<svg width="16" height="16" viewBox="0 0 16 16" fill="none" xmlns="http://www.w3.org/2000/svg">
<path d="M13 6.33341V6.33341C13 5.71343 13 5.40344 12.9319 5.14911C12.7469 4.45893 12.2078 3.91983 11.5176 3.7349C11.2633 3.66675 10.9533 3.66675 10.3333 3.66675H5.66667C5.04669 3.66675 4.7367 3.66675 4.48236 3.7349C3.79218 3.91983 3.25308 4.45893 3.06815 5.14911C3 5.40344 3 5.71343 3 6.33341V6.33341M13 6.33341V9.80008C13 10.9202 13 11.4802 12.782 11.9081C12.5903 12.2844 12.2843 12.5903 11.908 12.7821C11.4802 13.0001 10.9201 13.0001 9.8 13.0001H6.2C5.07989 13.0001 4.51984 13.0001 4.09202 12.7821C3.71569 12.5903 3.40973 12.2844 3.21799 11.9081C3 11.4802 3 10.9202 3 9.80008V6.33341M13 6.33341H3" stroke="#777777"/>
<path d="M5.66667 2.33325L5.66667 4.99992M10.3333 2.33325L10.3333 4.99992" stroke="#777777" stroke-linecap="round"/>
<path d="M8 11.3333L8 7.99992" stroke="#777777" stroke-linecap="round"/>
<path d="M9.66667 9.66675L6.33334 9.66675" stroke="#777777" stroke-linecap="round"/>
</svg>
