<svg width="16" height="16" viewBox="0 0 16 16" fill="none" xmlns="http://www.w3.org/2000/svg">
<g clip-path="url(#clip0_1_326)">
<path fill-rule="evenodd" clip-rule="evenodd" d="M1.33333 3.33333C1.33333 2.59695 1.93028 2 2.66666 2H13.3333C14.0697 2 14.6667 2.59695 14.6667 3.33333V11.3333C14.6667 12.0697 14.0697 12.6667 13.3333 12.6667H10.2761L8.4714 14.4714C8.21105 14.7318 7.78894 14.7318 7.52859 14.4714L5.72385 12.6667H2.66666C1.93028 12.6667 1.33333 12.0697 1.33333 11.3333V3.33333ZM13.3333 3.33333L2.66666 3.33333V11.3333L6 11.3333C6.17681 11.3333 6.34638 11.4036 6.4714 11.5286L8 13.0572L9.52859 11.5286C9.65361 11.4036 9.82318 11.3333 10 11.3333L13.3333 11.3333V3.33333Z" fill="#55575C"/>
</g>
<defs>
<clipPath id="clip0_1_326">
<rect width="13.3333" height="13.3333" fill="white" transform="translate(1.33333 1.33325)"/>
</clipPath>
</defs>
</svg>
