<svg width="30" height="30" viewBox="0 0 30 30" fill="none" xmlns="http://www.w3.org/2000/svg">
<path fill-rule="evenodd" clip-rule="evenodd" d="M24.6204 3.75H5.44607C4.52893 3.75 3.75 4.47536 3.75 5.36893V24.63C3.75 25.5246 4.26107 26.25 5.17821 26.25H24.3525C25.2707 26.25 26.25 25.5246 26.25 24.63V5.36893C26.25 4.47536 25.5386 3.75 24.6204 3.75ZM12.3214 12.3214H15.3504V13.8654H15.3836C15.8454 13.0329 17.2093 12.1875 18.8957 12.1875C22.1325 12.1875 23.0357 13.9061 23.0357 17.0893V23.0357H19.8214V17.6754C19.8214 16.2504 19.2525 15 17.9218 15C16.3061 15 15.5357 16.0939 15.5357 17.8896V23.0357H12.3214V12.3214ZM6.96429 23.0357H10.1786V12.3214H6.96429V23.0357ZM10.5804 8.57143C10.5804 9.68143 9.68143 10.5804 8.57143 10.5804C7.46143 10.5804 6.5625 9.68143 6.5625 8.57143C6.5625 7.46143 7.46143 6.5625 8.57143 6.5625C9.68143 6.5625 10.5804 7.46143 10.5804 8.57143Z" fill="#777777"/>
</svg>
