<svg width="28" height="30" viewBox="0 0 28 30" fill="none" xmlns="http://www.w3.org/2000/svg">
<g filter="url(#filter0_d_1_831)">
<g clip-path="url(#clip0_1_831)">
<path fill-rule="evenodd" clip-rule="evenodd" d="M14 7C12.3432 7 11 8.34315 11 10C11 11.6569 12.3432 13 14 13C15.6569 13 17 11.6569 17 10C17 8.34315 15.6569 7 14 7ZM13 10C13 9.44772 13.4477 9 14 9C14.5523 9 15 9.44772 15 10C15 10.5523 14.5523 11 14 11C13.4477 11 13 10.5523 13 10Z" fill="#FA5001"/>
<path fill-rule="evenodd" clip-rule="evenodd" d="M19.2263 3.98053C16.2238 1.33982 11.7762 1.33982 8.77372 3.98053C5.4099 6.93903 5.05765 12.1211 7.98018 15.5246L13.2413 21.6515C13.4313 21.8727 13.7084 22 14 22C14.2916 22 14.5687 21.8727 14.7587 21.6515L20.0198 15.5246C22.9423 12.1211 22.5901 6.93903 19.2263 3.98053ZM10.0946 5.48233C12.3418 3.50589 15.6582 3.50589 17.9054 5.48233C20.4426 7.71374 20.7151 11.6449 18.5025 14.2216L14 19.465L9.49753 14.2216C7.2849 11.6449 7.55743 7.71374 10.0946 5.48233Z" fill="#FA5001"/>
</g>
</g>
<defs>
<filter id="filter0_d_1_831" x="-2" y="0" width="32" height="32" filterUnits="userSpaceOnUse" color-interpolation-filters="sRGB">
<feFlood flood-opacity="0" result="BackgroundImageFix"/>
<feColorMatrix in="SourceAlpha" type="matrix" values="0 0 0 0 0 0 0 0 0 0 0 0 0 0 0 0 0 0 127 0" result="hardAlpha"/>
<feOffset dy="4"/>
<feGaussianBlur stdDeviation="2"/>
<feComposite in2="hardAlpha" operator="out"/>
<feColorMatrix type="matrix" values="0 0 0 0 0 0 0 0 0 0 0 0 0 0 0 0 0 0 0.25 0"/>
<feBlend mode="normal" in2="BackgroundImageFix" result="effect1_dropShadow_1_831"/>
<feBlend mode="normal" in="SourceGraphic" in2="effect1_dropShadow_1_831" result="shape"/>
</filter>
<clipPath id="clip0_1_831">
<rect width="20" height="20" fill="white" transform="translate(4 2)"/>
</clipPath>
</defs>
</svg>
