<svg width="30" height="30" viewBox="0 0 30 30" fill="none" xmlns="http://www.w3.org/2000/svg">
<path fill-rule="evenodd" clip-rule="evenodd" d="M3.75 14.6625C3.75 8.39221 8.66254 3.75 15 3.75C21.3375 3.75 26.25 8.39221 26.25 14.6625C26.25 20.9328 21.3375 25.575 15 25.575C13.8617 25.575 12.7696 25.4247 11.7435 25.1426C11.544 25.0877 11.3319 25.1032 11.1426 25.1867L8.90963 26.1724C8.32553 26.4303 7.66619 26.0149 7.64662 25.3766L7.58535 23.3754C7.57781 23.1288 7.46689 22.8984 7.28313 22.734C5.09415 20.7764 3.75 17.9423 3.75 14.6625ZM11.5491 12.6109L8.24442 17.8538C7.92728 18.357 8.54576 18.924 9.01955 18.5645L12.5693 15.8704C12.8094 15.6882 13.1413 15.6872 13.3824 15.868L16.0109 17.8394C16.7996 18.431 17.9252 18.2232 18.4509 17.3892L21.7556 12.1462C22.0727 11.643 21.4542 11.076 20.9804 11.4356L17.4307 14.1296C17.1905 14.3119 16.8587 14.3128 16.6176 14.1319L13.9892 12.1606C13.2005 11.5691 12.0748 11.7768 11.5491 12.6109Z" fill="#777777"/>
</svg>
