<svg width="30" height="30" viewBox="0 0 30 30" fill="none" xmlns="http://www.w3.org/2000/svg">
<path d="M14.9949 2.5C8.08413 2.5 2.5 8.0944 2.5 14.9949C2.5 20.291 5.79082 24.8159 10.4391 26.6362C10.326 25.6489 10.2334 24.1269 10.4802 23.0471C10.7065 22.0701 11.9405 16.8357 11.9405 16.8357C11.9405 16.8357 11.5703 16.085 11.5703 14.9846C11.5703 13.2466 12.5781 11.9508 13.8328 11.9508C14.9023 11.9508 15.4165 12.753 15.4165 13.7094C15.4165 14.7789 14.7378 16.3832 14.3778 17.8743C14.0796 19.1187 15.0051 20.1368 16.2289 20.1368C18.4502 20.1368 20.1574 17.792 20.1574 14.419C20.1574 11.4264 18.008 9.33875 14.9332 9.33875C11.375 9.33875 9.28732 12.0022 9.28732 14.7583C9.28732 15.8278 9.69868 16.9796 10.2129 17.6069C10.3157 17.7303 10.326 17.8435 10.2951 17.9669C10.2026 18.3577 9.98662 19.2112 9.9455 19.386C9.89407 19.6123 9.76038 19.6637 9.52385 19.5506C7.98128 18.8102 7.0146 16.5272 7.0146 14.6966C7.0146 10.7579 9.8735 7.138 15.2725 7.138C19.602 7.138 22.9751 10.2232 22.9751 14.3573C22.9751 18.6662 20.2602 22.1318 16.4963 22.1318C15.2314 22.1318 14.0384 21.4737 13.6374 20.6921C13.6374 20.6921 13.0101 23.0779 12.8558 23.6641C12.5782 24.7542 11.8172 26.1117 11.3029 26.9447C12.4753 27.3046 13.7094 27.5 15.0051 27.5C21.9056 27.5 27.5 21.9056 27.5 15.0051C27.4897 8.0944 21.8953 2.5 14.9949 2.5Z" fill="#777777"/>
</svg>
