<svg width="15" height="13" viewBox="0 0 15 13" fill="none" xmlns="http://www.w3.org/2000/svg">
<path d="M13 6.33333L13.7071 5.62623L14.4142 6.33333L13.7071 7.04044L13 6.33333ZM1 7.33333C0.447715 7.33333 5.14537e-07 6.88562 4.66255e-07 6.33333C4.17973e-07 5.78105 0.447715 5.33333 1 5.33333L1 7.33333ZM8.37377 0.292894L13.7071 5.62623L12.2929 7.04044L6.95956 1.70711L8.37377 0.292894ZM13.7071 7.04044L8.37377 12.3738L6.95956 10.9596L12.2929 5.62623L13.7071 7.04044ZM13 7.33333L1 7.33333L1 5.33333L13 5.33333L13 7.33333Z" fill="white"/>
</svg>
