<svg width="20" height="20" viewBox="0 0 20 20" fill="none" xmlns="http://www.w3.org/2000/svg">
<path fill-rule="evenodd" clip-rule="evenodd" d="M14 6C14 8.76142 11.7614 11 9 11C5.68629 11 3 13.6863 3 17C3 17.5523 2.55228 18 2 18C1.44772 18 1 17.5523 1 17C1 13.7718 2.91213 10.9901 5.66559 9.72588C4.6433 8.81038 4 7.48032 4 6C4 3.23858 6.23858 1 9 1C11.7614 1 14 3.23858 14 6ZM9 3C7.34315 3 6 4.34315 6 6C6 7.65685 7.34315 9 9 9C10.6569 9 12 7.65685 12 6C12 4.34315 10.6569 3 9 3Z" fill="#55575C"/>
<path fill-rule="evenodd" clip-rule="evenodd" d="M10.9473 11.9228C12.0512 10.8387 13.7537 10.7098 15 11.536C16.2463 10.7098 17.9488 10.8387 19.0527 11.9228C20.3158 13.163 20.3158 15.1816 19.0527 16.4219L15.7006 19.7135C15.3116 20.0955 14.6884 20.0955 14.2994 19.7135L10.9473 16.4219C9.68423 15.1816 9.68423 13.163 10.9473 11.9228ZM12.3486 13.3498C12.8235 12.8834 13.601 12.8834 14.0759 13.3498L14.2994 13.5692C14.6884 13.9512 15.3116 13.9512 15.7006 13.5692L15.9241 13.3498C16.399 12.8834 17.1765 12.8834 17.6514 13.3498C18.1162 13.8062 18.1162 14.5385 17.6514 14.9949L15 17.5985L12.3486 14.9949C11.8838 14.5385 11.8838 13.8062 12.3486 13.3498Z" fill="#55575C"/>
</svg>
